<svg xmlns="http://www.w3.org/2000/svg" width="74" height="74" viewBox="0 0 74 74">
  <g id="Group_2857" data-name="Group 2857" transform="translate(-40.858 -42.323)">
    <rect id="Rectangle_153" data-name="Rectangle 153" width="21" height="3" transform="translate(40.858 113.323)"/>
    <rect id="Rectangle_154" data-name="Rectangle 154" width="3" height="3" transform="translate(64.858 113.323)"/>
    <rect id="Rectangle_155" data-name="Rectangle 155" width="3" height="3" transform="translate(70.858 113.323)"/>
    <rect id="Rectangle_156" data-name="Rectangle 156" width="3" height="3" transform="translate(79.858 113.323)"/>
    <rect id="Rectangle_157" data-name="Rectangle 157" width="6" height="3" transform="translate(84.858 113.323)"/>
    <rect id="Rectangle_158" data-name="Rectangle 158" width="3" height="3" transform="translate(96.858 113.323)"/>
    <rect id="Rectangle_159" data-name="Rectangle 159" width="6" height="3" transform="translate(108.858 113.323)"/>
    <rect id="Rectangle_160" data-name="Rectangle 160" width="3" height="3" transform="translate(40.858 110.323)"/>
    <rect id="Rectangle_161" data-name="Rectangle 161" width="3" height="3" transform="translate(58.858 110.323)"/>
    <rect id="Rectangle_162" data-name="Rectangle 162" width="6" height="3" transform="translate(64.858 110.323)"/>
    <rect id="Rectangle_163" data-name="Rectangle 163" width="3" height="3" transform="translate(73.858 110.323)"/>
    <rect id="Rectangle_164" data-name="Rectangle 164" width="3" height="3" transform="translate(79.858 110.323)"/>
    <rect id="Rectangle_165" data-name="Rectangle 165" width="9" height="3" transform="translate(87.858 110.323)"/>
    <rect id="Rectangle_166" data-name="Rectangle 166" width="3" height="3" transform="translate(102.858 110.323)"/>
    <rect id="Rectangle_167" data-name="Rectangle 167" width="3" height="3" transform="translate(40.858 107.323)"/>
    <rect id="Rectangle_168" data-name="Rectangle 168" width="9" height="3" transform="translate(46.858 107.323)"/>
    <rect id="Rectangle_169" data-name="Rectangle 169" width="3" height="3" transform="translate(58.858 107.323)"/>
    <rect id="Rectangle_170" data-name="Rectangle 170" width="3" height="3" transform="translate(67.858 107.323)"/>
    <rect id="Rectangle_171" data-name="Rectangle 171" width="3" height="3" transform="translate(76.858 107.323)"/>
    <rect id="Rectangle_172" data-name="Rectangle 172" width="3" height="3" transform="translate(87.858 107.323)"/>
    <rect id="Rectangle_173" data-name="Rectangle 173" width="6" height="3" transform="translate(96.858 107.323)"/>
    <rect id="Rectangle_174" data-name="Rectangle 174" width="3" height="3" transform="translate(105.858 107.323)"/>
    <rect id="Rectangle_175" data-name="Rectangle 175" width="3" height="3" transform="translate(111.858 107.323)"/>
    <rect id="Rectangle_176" data-name="Rectangle 176" width="3" height="3" transform="translate(40.858 104.323)"/>
    <rect id="Rectangle_177" data-name="Rectangle 177" width="9" height="3" transform="translate(46.858 104.323)"/>
    <rect id="Rectangle_178" data-name="Rectangle 178" width="3" height="3" transform="translate(58.858 104.323)"/>
    <rect id="Rectangle_179" data-name="Rectangle 179" width="9" height="3" transform="translate(64.858 104.323)"/>
    <rect id="Rectangle_180" data-name="Rectangle 180" width="3" height="3" transform="translate(76.858 104.323)"/>
    <rect id="Rectangle_181" data-name="Rectangle 181" width="9" height="3" transform="translate(84.858 104.323)"/>
    <rect id="Rectangle_182" data-name="Rectangle 182" width="12" height="3" transform="translate(96.858 104.323)"/>
    <rect id="Rectangle_183" data-name="Rectangle 183" width="3" height="3" transform="translate(40.858 101.323)"/>
    <rect id="Rectangle_184" data-name="Rectangle 184" width="9" height="3" transform="translate(46.858 101.323)"/>
    <rect id="Rectangle_185" data-name="Rectangle 185" width="3" height="3" transform="translate(58.858 101.323)"/>
    <rect id="Rectangle_186" data-name="Rectangle 186" width="17" height="3" transform="translate(67.858 101.323)"/>
    <rect id="Rectangle_187" data-name="Rectangle 187" width="18" height="3" transform="translate(87.858 101.323)"/>
    <rect id="Rectangle_188" data-name="Rectangle 188" width="3" height="3" transform="translate(108.858 101.323)"/>
    <rect id="Rectangle_189" data-name="Rectangle 189" width="3" height="3" transform="translate(40.858 98.323)"/>
    <rect id="Rectangle_190" data-name="Rectangle 190" width="3" height="3" transform="translate(58.858 98.323)"/>
    <rect id="Rectangle_191" data-name="Rectangle 191" width="3" height="3" transform="translate(67.858 98.323)"/>
    <rect id="Rectangle_192" data-name="Rectangle 192" width="3" height="3" transform="translate(76.858 98.323)"/>
    <rect id="Rectangle_193" data-name="Rectangle 193" width="3" height="3" transform="translate(87.858 98.323)"/>
    <rect id="Rectangle_194" data-name="Rectangle 194" width="9" height="3" transform="translate(99.858 98.323)"/>
    <rect id="Rectangle_195" data-name="Rectangle 195" width="21" height="3" transform="translate(40.858 95.323)"/>
    <rect id="Rectangle_196" data-name="Rectangle 196" width="9" height="3" transform="translate(64.858 95.323)"/>
    <rect id="Rectangle_197" data-name="Rectangle 197" width="3" height="3" transform="translate(79.858 95.323)"/>
    <rect id="Rectangle_198" data-name="Rectangle 198" width="6" height="3" transform="translate(84.858 95.323)"/>
    <rect id="Rectangle_199" data-name="Rectangle 199" width="3" height="3" transform="translate(93.858 95.323)"/>
    <rect id="Rectangle_200" data-name="Rectangle 200" width="6" height="3" transform="translate(99.858 95.323)"/>
    <rect id="Rectangle_201" data-name="Rectangle 201" width="6" height="3" transform="translate(108.858 95.323)"/>
    <rect id="Rectangle_202" data-name="Rectangle 202" width="6" height="3" transform="translate(64.858 92.323)"/>
    <rect id="Rectangle_203" data-name="Rectangle 203" width="8" height="3" transform="translate(82.858 92.323)"/>
    <rect id="Rectangle_204" data-name="Rectangle 204" width="6" height="3" transform="translate(99.858 92.323)"/>
    <rect id="Rectangle_205" data-name="Rectangle 205" width="3" height="3" transform="translate(111.858 92.323)"/>
    <rect id="Rectangle_206" data-name="Rectangle 206" width="6" height="3" transform="translate(40.858 89.323)"/>
    <rect id="Rectangle_207" data-name="Rectangle 207" width="6" height="3" transform="translate(58.858 89.323)"/>
    <rect id="Rectangle_208" data-name="Rectangle 208" width="9" height="3" transform="translate(70.858 89.323)"/>
    <rect id="Rectangle_209" data-name="Rectangle 209" width="26" height="3" transform="translate(82.858 89.323)"/>
    <rect id="Rectangle_210" data-name="Rectangle 210" width="6" height="3" transform="translate(43.858 86.323)"/>
    <rect id="Rectangle_211" data-name="Rectangle 211" width="3" height="3" transform="translate(64.858 86.323)"/>
    <rect id="Rectangle_212" data-name="Rectangle 212" width="6" height="3" transform="translate(76.858 86.323)"/>
    <rect id="Rectangle_213" data-name="Rectangle 213" width="3" height="3" transform="translate(84.858 86.323)"/>
    <rect id="Rectangle_214" data-name="Rectangle 214" width="3" height="3" transform="translate(93.858 86.323)"/>
    <rect id="Rectangle_215" data-name="Rectangle 215" width="3" height="3" transform="translate(99.858 86.323)"/>
    <rect id="Rectangle_216" data-name="Rectangle 216" width="3" height="3" transform="translate(108.858 86.323)"/>
    <rect id="Rectangle_217" data-name="Rectangle 217" width="3" height="2" transform="translate(40.858 84.323)"/>
    <rect id="Rectangle_218" data-name="Rectangle 218" width="3" height="2" transform="translate(46.858 84.323)"/>
    <rect id="Rectangle_219" data-name="Rectangle 219" width="15" height="2" transform="translate(58.858 84.323)"/>
    <rect id="Rectangle_220" data-name="Rectangle 220" width="3" height="2" transform="translate(76.858 84.323)"/>
    <rect id="Rectangle_221" data-name="Rectangle 221" width="9" height="2" transform="translate(93.858 84.323)"/>
    <rect id="Rectangle_222" data-name="Rectangle 222" width="3" height="2" transform="translate(105.858 84.323)"/>
    <rect id="Rectangle_223" data-name="Rectangle 223" width="3" height="2" transform="translate(111.858 84.323)"/>
    <rect id="Rectangle_224" data-name="Rectangle 224" width="6" height="3" transform="translate(49.858 81.323)"/>
    <rect id="Rectangle_225" data-name="Rectangle 225" width="12" height="3" transform="translate(67.858 81.323)"/>
    <rect id="Rectangle_226" data-name="Rectangle 226" width="2" height="3" transform="translate(82.858 81.323)"/>
    <rect id="Rectangle_227" data-name="Rectangle 227" width="6" height="3" transform="translate(93.858 81.323)"/>
    <rect id="Rectangle_228" data-name="Rectangle 228" width="6" height="3" transform="translate(102.858 81.323)"/>
    <rect id="Rectangle_229" data-name="Rectangle 229" width="3" height="3" transform="translate(111.858 81.323)"/>
    <rect id="Rectangle_230" data-name="Rectangle 230" width="6" height="3" transform="translate(46.858 78.323)"/>
    <rect id="Rectangle_231" data-name="Rectangle 231" width="9" height="3" transform="translate(58.858 78.323)"/>
    <rect id="Rectangle_232" data-name="Rectangle 232" width="6" height="3" transform="translate(76.858 78.323)"/>
    <rect id="Rectangle_233" data-name="Rectangle 233" width="15" height="3" transform="translate(84.858 78.323)"/>
    <rect id="Rectangle_234" data-name="Rectangle 234" width="3" height="3" transform="translate(102.858 78.323)"/>
    <rect id="Rectangle_235" data-name="Rectangle 235" width="6" height="3" transform="translate(108.858 78.323)"/>
    <rect id="Rectangle_236" data-name="Rectangle 236" width="3" height="3" transform="translate(43.858 75.323)"/>
    <rect id="Rectangle_237" data-name="Rectangle 237" width="6" height="3" transform="translate(49.858 75.323)"/>
    <rect id="Rectangle_238" data-name="Rectangle 238" width="3" height="3" transform="translate(61.858 75.323)"/>
    <rect id="Rectangle_239" data-name="Rectangle 239" width="3" height="3" transform="translate(79.858 75.323)"/>
    <rect id="Rectangle_240" data-name="Rectangle 240" width="12" height="3" transform="translate(84.858 75.323)"/>
    <rect id="Rectangle_241" data-name="Rectangle 241" width="3" height="3" transform="translate(99.858 75.323)"/>
    <rect id="Rectangle_242" data-name="Rectangle 242" width="12" height="3" transform="translate(40.858 72.323)"/>
    <rect id="Rectangle_243" data-name="Rectangle 243" width="18" height="3" transform="translate(55.858 72.323)"/>
    <rect id="Rectangle_244" data-name="Rectangle 244" width="3" height="3" transform="translate(79.858 72.323)"/>
    <rect id="Rectangle_245" data-name="Rectangle 245" width="9" height="3" transform="translate(87.858 72.323)"/>
    <rect id="Rectangle_246" data-name="Rectangle 246" width="6" height="3" transform="translate(108.858 72.323)"/>
    <rect id="Rectangle_247" data-name="Rectangle 247" width="6" height="3" transform="translate(43.858 69.323)"/>
    <rect id="Rectangle_248" data-name="Rectangle 248" width="3" height="3" transform="translate(52.858 69.323)"/>
    <rect id="Rectangle_249" data-name="Rectangle 249" width="6" height="3" transform="translate(70.858 69.323)"/>
    <rect id="Rectangle_250" data-name="Rectangle 250" width="5" height="3" transform="translate(79.858 69.323)"/>
    <rect id="Rectangle_251" data-name="Rectangle 251" width="3" height="3" transform="translate(87.858 69.323)"/>
    <rect id="Rectangle_252" data-name="Rectangle 252" width="3" height="3" transform="translate(93.858 69.323)"/>
    <rect id="Rectangle_253" data-name="Rectangle 253" width="3" height="3" transform="translate(111.858 69.323)"/>
    <rect id="Rectangle_254" data-name="Rectangle 254" width="6" height="3" transform="translate(40.858 66.323)"/>
    <rect id="Rectangle_255" data-name="Rectangle 255" width="3" height="3" transform="translate(49.858 66.323)"/>
    <rect id="Rectangle_256" data-name="Rectangle 256" width="6" height="3" transform="translate(58.858 66.323)"/>
    <rect id="Rectangle_257" data-name="Rectangle 257" width="3" height="3" transform="translate(70.858 66.323)"/>
    <rect id="Rectangle_258" data-name="Rectangle 258" width="11" height="3" transform="translate(79.858 66.323)"/>
    <rect id="Rectangle_259" data-name="Rectangle 259" width="9" height="3" transform="translate(93.858 66.323)"/>
    <rect id="Rectangle_260" data-name="Rectangle 260" width="6" height="3" transform="translate(105.858 66.323)"/>
    <rect id="Rectangle_261" data-name="Rectangle 261" width="6" height="3" transform="translate(64.858 63.323)"/>
    <rect id="Rectangle_262" data-name="Rectangle 262" width="3" height="3" transform="translate(76.858 63.323)"/>
    <rect id="Rectangle_263" data-name="Rectangle 263" width="2" height="3" transform="translate(82.858 63.323)"/>
    <rect id="Rectangle_264" data-name="Rectangle 264" width="21" height="3" transform="translate(40.858 60.323)"/>
    <rect id="Rectangle_265" data-name="Rectangle 265" width="3" height="3" transform="translate(64.858 60.323)"/>
    <rect id="Rectangle_266" data-name="Rectangle 266" width="3" height="3" transform="translate(70.858 60.323)"/>
    <rect id="Rectangle_267" data-name="Rectangle 267" width="3" height="3" transform="translate(76.858 60.323)"/>
    <rect id="Rectangle_268" data-name="Rectangle 268" width="2" height="3" transform="translate(82.858 60.323)"/>
    <rect id="Rectangle_269" data-name="Rectangle 269" width="3" height="3" transform="translate(87.858 60.323)"/>
    <rect id="Rectangle_270" data-name="Rectangle 270" width="21" height="3" transform="translate(93.858 60.323)"/>
    <rect id="Rectangle_271" data-name="Rectangle 271" width="3" height="3" transform="translate(40.858 57.323)"/>
    <rect id="Rectangle_272" data-name="Rectangle 272" width="3" height="3" transform="translate(58.858 57.323)"/>
    <rect id="Rectangle_273" data-name="Rectangle 273" width="6" height="3" transform="translate(64.858 57.323)"/>
    <rect id="Rectangle_274" data-name="Rectangle 274" width="3" height="3" transform="translate(73.858 57.323)"/>
    <rect id="Rectangle_275" data-name="Rectangle 275" width="6" height="3" transform="translate(84.858 57.323)"/>
    <rect id="Rectangle_276" data-name="Rectangle 276" width="3" height="3" transform="translate(93.858 57.323)"/>
    <rect id="Rectangle_277" data-name="Rectangle 277" width="3" height="3" transform="translate(111.858 57.323)"/>
    <rect id="Rectangle_278" data-name="Rectangle 278" width="3" height="3" transform="translate(40.858 54.323)"/>
    <rect id="Rectangle_279" data-name="Rectangle 279" width="9" height="3" transform="translate(46.858 54.323)"/>
    <rect id="Rectangle_280" data-name="Rectangle 280" width="3" height="3" transform="translate(58.858 54.323)"/>
    <rect id="Rectangle_281" data-name="Rectangle 281" width="3" height="3" transform="translate(64.858 54.323)"/>
    <rect id="Rectangle_282" data-name="Rectangle 282" width="8" height="3" transform="translate(82.858 54.323)"/>
    <rect id="Rectangle_283" data-name="Rectangle 283" width="3" height="3" transform="translate(93.858 54.323)"/>
    <rect id="Rectangle_284" data-name="Rectangle 284" width="9" height="3" transform="translate(99.858 54.323)"/>
    <rect id="Rectangle_285" data-name="Rectangle 285" width="3" height="3" transform="translate(111.858 54.323)"/>
    <rect id="Rectangle_286" data-name="Rectangle 286" width="3" height="3" transform="translate(40.858 51.323)"/>
    <rect id="Rectangle_287" data-name="Rectangle 287" width="9" height="3" transform="translate(46.858 51.323)"/>
    <rect id="Rectangle_288" data-name="Rectangle 288" width="3" height="3" transform="translate(58.858 51.323)"/>
    <rect id="Rectangle_289" data-name="Rectangle 289" width="9" height="3" transform="translate(67.858 51.323)"/>
    <rect id="Rectangle_290" data-name="Rectangle 290" width="5" height="3" transform="translate(82.858 51.323)"/>
    <rect id="Rectangle_291" data-name="Rectangle 291" width="3" height="3" transform="translate(93.858 51.323)"/>
    <rect id="Rectangle_292" data-name="Rectangle 292" width="9" height="3" transform="translate(99.858 51.323)"/>
    <rect id="Rectangle_293" data-name="Rectangle 293" width="3" height="3" transform="translate(111.858 51.323)"/>
    <rect id="Rectangle_294" data-name="Rectangle 294" width="3" height="3" transform="translate(40.858 48.323)"/>
    <rect id="Rectangle_295" data-name="Rectangle 295" width="9" height="3" transform="translate(46.858 48.323)"/>
    <rect id="Rectangle_296" data-name="Rectangle 296" width="3" height="3" transform="translate(58.858 48.323)"/>
    <rect id="Rectangle_297" data-name="Rectangle 297" width="15" height="3" transform="translate(64.858 48.323)"/>
    <rect id="Rectangle_298" data-name="Rectangle 298" width="3" height="3" transform="translate(84.858 48.323)"/>
    <rect id="Rectangle_299" data-name="Rectangle 299" width="3" height="3" transform="translate(93.858 48.323)"/>
    <rect id="Rectangle_300" data-name="Rectangle 300" width="9" height="3" transform="translate(99.858 48.323)"/>
    <rect id="Rectangle_301" data-name="Rectangle 301" width="3" height="3" transform="translate(111.858 48.323)"/>
    <rect id="Rectangle_302" data-name="Rectangle 302" width="3" height="3" transform="translate(40.858 45.323)"/>
    <rect id="Rectangle_303" data-name="Rectangle 303" width="3" height="3" transform="translate(58.858 45.323)"/>
    <rect id="Rectangle_304" data-name="Rectangle 304" width="3" height="3" transform="translate(64.858 45.323)"/>
    <rect id="Rectangle_305" data-name="Rectangle 305" width="9" height="3" transform="translate(73.858 45.323)"/>
    <rect id="Rectangle_306" data-name="Rectangle 306" width="3" height="3" transform="translate(84.858 45.323)"/>
    <rect id="Rectangle_307" data-name="Rectangle 307" width="3" height="3" transform="translate(93.858 45.323)"/>
    <rect id="Rectangle_308" data-name="Rectangle 308" width="3" height="3" transform="translate(111.858 45.323)"/>
    <rect id="Rectangle_309" data-name="Rectangle 309" width="21" height="3" transform="translate(40.858 42.323)"/>
    <rect id="Rectangle_310" data-name="Rectangle 310" width="3" height="3" transform="translate(67.858 42.323)"/>
    <rect id="Rectangle_311" data-name="Rectangle 311" width="3" height="3" transform="translate(76.858 42.323)"/>
    <rect id="Rectangle_312" data-name="Rectangle 312" width="3" height="3" transform="translate(84.858 42.323)"/>
    <rect id="Rectangle_313" data-name="Rectangle 313" width="21" height="3" transform="translate(93.858 42.323)"/>
  </g>
</svg>
