<svg xmlns="http://www.w3.org/2000/svg" width="357.609" height="70" viewBox="0 0 357.609 70">
  <path id="Path_27237" data-name="Path 27237" d="M-136.567,12.27a1.569,1.569,0,0,0,2.227-.194c.484-.484.484-.678.1-1.259s-.291-1.162.775-4.164c3.293-9.588,9.007-21.21,17.626-35.93.872-1.453,4.261-7.167,7.457-12.687l5.811-10.072,1.55-.291c.872-.1,8.716-.194,17.432-.194,16.658,0,19.563.194,20.532,1.259.387.387.581.387,1.065.1.775-.387.968-1.356.291-1.743-1.646-1.162-13.655-1.937-26.052-1.646-4.649.1-9.491.291-10.75.387l-2.324.194.1-.968c0-.775-.1-.968-.678-1.065s-.968.194-1.646,1.065l-.872,1.162-3.39.194c-6.3.387-20.628,1.84-27.892,2.905-4.164.581-9.975,1.743-10.556,2.131-.484.387-.581,1.259-.1,1.453a18.489,18.489,0,0,0,3.68-.581c4.552-.968,9.2-1.646,21.4-3,4.746-.484,12.3-1.065,14.043-1.065h1.646l-4.842,8.329C-124.946-17.752-127.27-13.394-131.241-4.1c-4.261,9.878-6.1,15.689-5.23,16.561Zm69.633-30.8c-.291-.581-.872-.387-1.84.194-.872.484-6.392,4.455-8.813,5.714-2.034,1.065-2.809,1.356-3.777,1.259s-1.259-.1-1.356-1.55l-.1-2.034c-.194-3-.291-3.486-.872-3.874a3.591,3.591,0,0,0-1.356-.387c-1.259,0-5.036,2.034-8.135,4.455a15.469,15.469,0,0,1-3.2,2.131c-.194-.194,2.905-5.811,5.23-9.394,2.905-4.552,6.682-9.975,10.169-14.527a23.3,23.3,0,0,0,2.615-3.777c.194-.872-.387-1.065-1.259-.775-2.324.678-15.5,19.66-18.982,27.311-1.55,3.486-1.743,4.358-1.162,4.939a1.721,1.721,0,0,0,.968.387,27.708,27.708,0,0,0,4.746-3.293c3.777-2.905,7.748-5.423,8.523-5.423.194,0,.291,1.162.291,2.518a12.915,12.915,0,0,0,.387,3.39c.678,1.55,3.487,2.131,6.1,1.259,2.518-.872,8.232-4.746,10.75-7.07.775-.775,1.259-1.356,1.162-1.55Zm31.088.581c-.775.484-1.743,1.259-3,2.227-4.455,3.583-7.167,5.036-9.394,5.23-1.162.1-1.453,0-1.84-.484-.581-.872-.194-2.615,1.065-4.939.872-1.55.968-1.937.581-2.324-.581-.581-.968-.484-2.034.387l-.968.775-.484-.968a3.142,3.142,0,0,0-3-1.743,7.672,7.672,0,0,0-3.68,1.162C-63.351-15.912-66.644-10-64.223-8.552c1.743,1.065,4.939-.1,9.394-3.486l2.324-1.743v1.646c0,1.453.1,1.743,1.162,2.615,1.937,1.55,4.358,1.259,8.619-1.162a48.108,48.108,0,0,0,7.941-6.1c.678-.678,1.065-1.162,1.065-1.356,0-1.065-.484-1.162-2.324.1ZM-55.7-13.878c-1.259.968-3.2,2.227-4.261,2.905-2.518,1.453-3.1,1.55-2.809.291.678-2.809,6-7.36,8.135-7.264a.74.74,0,0,1,.484.194,2.868,2.868,0,0,1,.678,1.259c.291.968.194,1.065-2.034,2.712ZM4.539-18.527C4.151-19.4,3.28-19.108.568-17.171c-6.779,4.842-12.009,7.554-13.752,7.07-.678-.194-.484-2.034.484-4.358,1.065-2.615,1.162-3.971.194-4.649-1.646-1.259-5.23.387-11.622,5.327-2.712,2.131-3.777,2.809-3.583,2.324a48.8,48.8,0,0,1,3.874-6.489c.872-1.162.872-1.259.291-1.743a.788.788,0,0,0-1.065-.194c-1.356.678-5.133,6.973-5.52,9.1a1.416,1.416,0,0,0,.387,1.453,2.04,2.04,0,0,0,1.259.484c.678,0,4.261-2.421,6.876-4.649s7.36-5.036,7.845-4.649a7.381,7.381,0,0,1-.678,2.421c-1.259,3.293-1.453,4.455-.775,5.52,1.162,1.84,3.486,2.034,6.973.484A54.336,54.336,0,0,0,3.28-17.074c1.065-.872,1.646-1.55,1.55-1.84Zm36.027-.194c-.387-.581-1.259.1-3.1,1.55a54.12,54.12,0,0,1-9.782,5.327c-3.874,1.646-6.489,1.646-8.426.1-1.453-1.162-1.453-2.131,0-2.324a18.959,18.959,0,0,0,5.908-2.421c1.356-1.065,2.034-2.227,1.743-3-.775-2.421-5.52-.775-11.622,4.068l-3.1,2.421,1.259-2.227c2.131-3.874,7.845-12.784,12.009-18.788a55.252,55.252,0,0,0,4.068-6.3.791.791,0,0,0-.872-.775,1.562,1.562,0,0,0-.872.291C26.329-39.736,18-27.534,13.352-19.592c-4.164,6.973-6.682,12.2-6.2,12.687a1.442,1.442,0,0,0,.872.387,21.787,21.787,0,0,0,3.777-3.2c1.84-1.743,3.486-3.293,3.68-3.39s.581.291.872.775a6.733,6.733,0,0,0,3.971,2.905c2.131.678,4.649.387,7.651-.872a53.553,53.553,0,0,0,10.75-6.1c1.743-1.356,1.937-2.131,1.646-2.615ZM19.744-16.784a18.447,18.447,0,0,1,3.971-2.227h0c.581,0,.194.581-.775,1.162-.581.291-1.646.775-2.324,1.065C19.453-16.4,19.356-16.4,19.744-16.784Zm97.331,26.73h0a1.571,1.571,0,0,0,2.615-1.453c-.387-1.453,3.971-11.137,9.007-19.95a353.732,353.732,0,0,1,27.8-40.482c3-3.583,3.487-4.358,3.2-4.842-.775-1.259-1.646-.581-5.133,3.68-2.712,3.293-12.3,13.171-17.142,17.626a173.221,173.221,0,0,1-16.077,12.881c-5.714,3.68-10.944,5.811-14.624,5.811-3.486,0-5.423-1.259-5.908-4.068-1.162-6.2,7.845-22.469,17.432-31.572a12.875,12.875,0,0,0,2.421-2.712c0-.194-.291-.484-.678-.678-.581-.291-.968-.1-2.518,1.065-5.52,4.164-13.752,15.5-17.142,23.534-3.874,9.2-2.712,14.624,3.39,16.077a11.814,11.814,0,0,0,6.1.1c7.748-1.646,18.4-8.716,31.185-20.628,1.259-1.162,1.356-1.259.775-.387-2.131,2.905-8.135,12.106-11.137,16.948A141.315,141.315,0,0,0,118.915,3.554c-1.937,4.649-2.324,6.1-1.743,6.682Zm59.174-28.764c-.484-.581-1.453-.1-3.971,1.453a22.9,22.9,0,0,1-11.525,3.777H159.2l.484-1.356c.872-2.227.678-3.39-.872-4.842a3.37,3.37,0,0,0-2.034-.581,3.9,3.9,0,0,0-2.131.581,8.712,8.712,0,0,1-1.356.678,8.561,8.561,0,0,0-1.937,1.937c-3.1,3.777-3.68,7.167-1.453,8.813a4,4,0,0,0,4.068.387c1.259-.387,3.874-2.518,4.164-3.293.194-.387.581-.484,2.227-.484,3.971,0,7.845-.968,12.881-3.874,2.712-1.55,3.486-2.518,3.1-3Zm-20.725,7.651a5.988,5.988,0,0,1-1.937,1.453c-1.55.775-2.227.775-2.712-.1s-.194-2.131.872-3.971l.775-1.356.775,1.065a8.872,8.872,0,0,0,2.034,1.646l.872.484Zm2.227-4.261a3.864,3.864,0,0,1-.678,1.646c-.194.1-.775-.1-1.356-.484-.775-.581-1.065-.968-1.065-1.646a2.7,2.7,0,0,1,2.034-2.421h.291q1.453.145.872,2.905Zm53.653-3.1c-.291-.581-1.065-.387-1.743.1-.581.387-1.356.872-2.131,1.453-8.523,5.811-13.752,7.845-13.752,5.327a16.831,16.831,0,0,1,1.065-3.39,9.983,9.983,0,0,0,.872-3.1c-.484-1.065-1.356-.678-4.842,2.131-3.874,3.1-6.682,5.133-7.167,5.133s-.387-1.55.194-2.905c.291-.678,1.065-2.131,1.743-3.293,1.162-1.937,1.259-2.131.775-2.518-.968-.775-1.646-.291-3.293,2.421-1.937,3.293-2.615,5.811-1.743,6.876,1.453,1.743,3.68,1.162,7.941-2.227l2.615-2.131-.194,1.937a3.111,3.111,0,0,0,3.293,3.777c2.421.1,7.264-2.227,12.493-5.811,3.777-2.518,4.164-3,3.777-3.68Z" transform="translate(146.183 57.348)"/>
</svg>
