<svg xmlns="http://www.w3.org/2000/svg" width="7.19" height="7.19" viewBox="0 0 7.19 7.19">
  <path id="Path_203" data-name="Path 203" d="M3334.767,790.491v-.02a3.577,3.577,0,0,0-.6-1.974l0,0-.106-.143a3.616,3.616,0,0,0-1.243-1.057l-.047-.024-.047-.023-.024-.011a3.55,3.55,0,0,0-.463-.18c-.067-.021-.134-.039-.2-.056-.052-.013-.1-.025-.157-.035h0a3.639,3.639,0,0,0-.693-.069h-.1a3.624,3.624,0,0,0-.613.068c-.054.011-.108.023-.161.036a3.581,3.581,0,0,0-1.465.752,3.614,3.614,0,0,0-.56.6l-.106.143,0,0a3.58,3.58,0,0,0-.6,1.974v.02a3.579,3.579,0,0,0,.6,1.989l0,0,.105.143.011.015.02.027.007.008.025.032,0,.006.027.034,0,0,.029.035,0,.006.028.034,0,.005.029.033,0,.005.029.033.005.006.03.032.006.006.03.032.006.006.03.031.006.006.031.03.006.006.031.03.007.006.031.029.007.006.031.028.008.006.031.028.007.006.031.026h0l.008.007.031.026.01.008.031.025.01.008.03.024.012.009.029.022.013.01.029.021.014.01.027.02.015.011.027.019.016.011.027.018.017.011.026.017.018.011.026.017.019.011.025.016.019.011.025.015.02.011.025.015.02.011.025.014.021.011.024.013.022.011.021.012h0l.01.005.012.006.012.006.011.006.013.006.011.005.013.006.01.005.014.006.01,0,.014.007.01,0,.014.007.009,0,.015.007.009,0,.015.007.009,0,.016.007.008,0,.016.007.008,0,.017.007.008,0,.016.007.008,0,.017.007.008,0,.017.007.008,0,.017.007.007,0,.018.007.007,0,.018.007.007,0,.019.007.006,0,.018.006.006,0,.019.006.006,0,.019.006.006,0,.019.006.005,0,.02.006.005,0,.02.006.005,0,.02.006h.005l.02.006h0l.021.006h0l.022.006h0l.022.006h0l.022.006h0l.023.006h.007l.02,0h0l.025.006h0l.026.006h0a3.624,3.624,0,0,0,1.574,0h0l.026-.006h0l.025-.006h0l.019,0h.007l.024-.006h0l.023-.006h0l.022-.006h0l.022-.006h0l.021-.006h0l.021-.006h0l.02-.006h0l.02-.006.005,0,.02-.006.006,0,.019-.006.006,0,.019-.006.006,0,.019-.006.006,0,.019-.006.006,0,.019-.007.006,0,.019-.007.006,0,.018-.007.007,0,.018-.007.007,0,.017-.007.008,0,.017-.007.007,0,.017-.007.007,0,.017-.007.008,0,.016-.007.008,0,.016-.007.008,0,.016-.007.009,0,.015-.007.008,0,.016-.007.008,0,.015-.007.009,0,.015-.007.009,0,.015-.007.009,0,.014-.007.009,0,.014-.007.01,0,.012-.006h0l.02-.011.024-.012.023-.013.021-.012.025-.014.021-.012.025-.015.019-.011.026-.016.019-.011.026-.016.018-.011.026-.017.017-.011.027-.018.016-.011.027-.018.016-.011.027-.019.015-.011.027-.02.015-.011.027-.021.014-.01.028-.021.013-.01.029-.022.012-.01.03-.024.01-.009.031-.026.009-.007h0l.03-.026.008-.007.031-.028.008-.006.031-.029.007-.006.031-.029.007-.006.031-.03.006-.006.031-.031.005-.006.032-.032,0,0,.031-.033,0,0,.031-.034,0,0,.031-.035,0,0,.031-.036,0,0,.031-.038v0l.031-.037,0,0,.031-.039h0l.028-.036,0,0,.021-.028.009-.013.106-.143,0,0a3.581,3.581,0,0,0,.6-1.989Zm-1.053,2.107-.025.03,0,.005-.026.03,0,.005-.026.029,0,0-.027.029,0,0-.027.029,0,0-.026.027,0,0-.027.027-.007.006-.026.025-.008.008-.025.024-.009.008-.025.023-.01.009-.024.022-.01.009-.025.021-.01.009-.021.018-.014.012-.019.016-.016.013-.018.015-.017.014-.018.014-.017.013-.02.015-.015.011-.022.016-.015.011-.022.016-.016.012-.017.012-.021.015-.013.009-.025.017-.012.008-.027.018-.011.007-.029.018-.01.006-.03.018-.01.006-.031.018-.009.005-.034.02-.006,0-.021.011h0l-.039.021-.008,0-.034.018-.009,0-.032.017-.009,0-.033.016-.01,0-.032.015-.01,0-.032.015-.01,0-.031.014-.011.005-.027.011-.017.007-.02.008-.019.008-.024.009-.016.006-.027.01-.016.006-.027.01-.016.006-.027.009-.017.006-.025.008-.019.006-.022.007-.022.007-.017,0-.028.008-.016,0-.028.008-.016,0-.03.008h-.005a2.081,2.081,0,0,0,.149-.177,3.677,3.677,0,0,0,.555-1.2,5.249,5.249,0,0,1,1.027.281Zm-3.389,1.083-.016,0-.028-.008-.016,0-.028-.008-.017-.005-.022-.007-.023-.007-.019-.006-.026-.009-.017-.006-.027-.009-.016-.005-.028-.01-.015-.005-.028-.011-.015-.006-.027-.011-.016-.006-.021-.008-.013-.005-.031-.013-.01,0-.033-.014-.01,0-.033-.015-.009,0-.033-.016-.009,0-.033-.016-.008,0-.034-.017-.008,0-.035-.018-.007,0-.062-.034,0,0-.038-.021-.007,0-.032-.019-.009-.005-.031-.019-.01-.006-.03-.019-.01-.006-.028-.018-.011-.007-.027-.018-.012-.008-.023-.016-.016-.011-.017-.012-.021-.015-.016-.012-.021-.016-.015-.011-.019-.014-.017-.013-.018-.014-.018-.014-.018-.014-.017-.014-.019-.016-.014-.012-.021-.018-.01-.009-.024-.021-.01-.009-.024-.022-.01-.009-.025-.023-.009-.008-.025-.024-.008-.008-.026-.025-.006-.006-.027-.027,0-.005-.026-.027,0,0-.027-.028,0,0-.027-.029,0-.005-.026-.029,0-.005-.026-.03,0-.005-.025-.03,0,0a5.246,5.246,0,0,1,1.027-.281,3.667,3.667,0,0,0,.555,1.2,1.994,1.994,0,0,0,.149.177h-.006Zm-1.69-5.3.026-.031,0,0,.026-.03,0,0,.027-.031,0,0,.029-.031h0l.03-.031h0l.03-.03,0,0,.029-.029,0,0,.029-.028,0,0,.028-.027,0,0,.029-.027,0,0,.03-.027,0,0,.031-.027,0,0,.066-.056,0,0,.032-.026,0,0,.031-.025,0,0,.031-.024,0,0,.031-.024,0,0,.032-.023,0,0,.033-.023,0,0,.035-.024h0l.036-.024h0l.035-.023,0,0,.034-.021,0,0,.034-.021,0,0,.034-.02.005,0,.034-.02,0,0,.035-.019,0,0,.036-.019h0l.077-.039h0l.037-.018,0,0,.036-.017,0,0,.036-.016.005,0,.036-.016.005,0,.036-.015,0,0,.037-.015h0l.039-.015h0l.04-.015h0l.039-.014h0l.038-.013,0,0,.038-.012.005,0,.038-.011.005,0,.038-.011h.006l.039-.011h0l.04-.01h0l.01,0a2.013,2.013,0,0,0-.151.179,3.661,3.661,0,0,0-.555,1.194,5.262,5.262,0,0,1-1.025-.28Zm3.36-1.088.04.01h0l.039.011h.006l.038.011.006,0,.038.011.006,0,.038.012,0,0,.038.013h0l.04.014h0l.041.015h0l.039.015h0l.038.015,0,0,.037.015.005,0,.036.016.005,0,.036.016,0,0,.036.017,0,0,.037.018h0l.077.039h0l.037.019,0,0,.035.019,0,0,.034.02,0,0,.034.02,0,0,.034.021,0,0,.034.021,0,0,.035.023h0l.036.024h0l.035.024,0,0,.033.023,0,0,.032.023,0,0,.032.024,0,0,.031.024,0,0,.031.025,0,0,.032.026,0,0,.066.056,0,0,.031.027,0,0,.03.027,0,0,.029.027,0,0,.029.027,0,0,.028.028,0,0,.029.029,0,0,.03.031h0l.029.031h0l.029.031,0,0,.027.031,0,0,.026.031,0,0,.026.031,0,0a5.263,5.263,0,0,1-1.025.28,3.661,3.661,0,0,0-.555-1.194,2.122,2.122,0,0,0-.151-.179l.01,0Zm.93,3.035c0-.24-.021-.477-.049-.708a6.611,6.611,0,0,0-.115-.672q.246-.044.472-.1a4.546,4.546,0,0,0,.663-.221,3.27,3.27,0,0,1,.575,1.7Zm-1.605-3.119a1.117,1.117,0,0,1,.58.436,3.332,3.332,0,0,1,.5,1.063l-.163.021a9.086,9.086,0,0,1-.913.058Zm-.293,0v1.578a9.1,9.1,0,0,1-.913-.058l-.163-.021a3.327,3.327,0,0,1,.5-1.063A1.118,1.118,0,0,1,3331.025,787.207Zm-.947,1.811a9.4,9.4,0,0,0,.947.061v1.247h-1.312a6.667,6.667,0,0,1,.161-1.334Zm.947,1.6V791.9a9.4,9.4,0,0,0-.948.061l-.2.026a6.744,6.744,0,0,1-.16-1.365Zm-.915,1.63a9.146,9.146,0,0,1,.915-.059v1.585a1.119,1.119,0,0,1-.581-.438,3.351,3.351,0,0,1-.5-1.068Zm1.208,1.526V792.19a9.151,9.151,0,0,1,.915.059l.164.021a3.346,3.346,0,0,1-.5,1.068A1.119,1.119,0,0,1,3331.318,793.775Zm.948-1.818a9.386,9.386,0,0,0-.948-.061v-1.278h1.313a6.727,6.727,0,0,1-.16,1.365Zm-.948-1.632v-1.247a9.392,9.392,0,0,0,.947-.061l.2-.026a6.664,6.664,0,0,1,.162,1.334Zm-2.207-1.483c.15.039.308.073.473.1a6.487,6.487,0,0,0-.115.672c-.027.231-.044.469-.049.708h-1.546a3.271,3.271,0,0,1,.575-1.7A4.571,4.571,0,0,0,3329.112,788.843Zm.308,1.776a7.218,7.218,0,0,0,.048.733,6.53,6.53,0,0,0,.115.678q-.247.044-.474.1a4.527,4.527,0,0,0-.663.221,3.267,3.267,0,0,1-.573-1.736Zm3.815,1.514q-.226-.058-.474-.1a6.6,6.6,0,0,0,.115-.678c.028-.239.044-.485.049-.733h1.546a3.268,3.268,0,0,1-.573,1.736A4.54,4.54,0,0,0,3333.235,792.133Z" transform="translate(-3327.577 -786.896)"/>
</svg>
